<svg class="main-svg" xmlns="http://www.w3.org/2000/svg" xmlns:xlink="http://www.w3.org/1999/xlink" width="1000" height="600" style="" viewBox="0 0 1000 600"><rect x="0" y="0" width="1000" height="600" style="fill: rgb(255, 255, 255); fill-opacity: 1;"/><defs id="defs-58c8ce"><g class="clips"><clipPath id="clip58c8cexyplot" class="plotclip"><rect width="677" height="292"/></clipPath><clipPath class="axesclip" id="clip58c8cex"><rect x="80" y="0" width="677" height="600"/></clipPath><clipPath class="axesclip" id="clip58c8cey"><rect x="0" y="100" width="1000" height="292"/></clipPath><clipPath class="axesclip" id="clip58c8cexy"><rect x="80" y="100" width="677" height="292"/></clipPath></g><g class="gradients"><linearGradient x1="0" y1="1" x2="0" y2="0" gradientUnits="objectBoundingBox" id="g58c8ce-cbcoloraxis"><stop offset="0%" stop-color="rgb(158, 1, 66)" stop-opacity="1"/><stop offset="10%" stop-color="rgb(213, 62, 79)" stop-opacity="1"/><stop offset="20%" stop-color="rgb(244, 109, 67)" stop-opacity="1"/><stop offset="30%" stop-color="rgb(253, 174, 97)" stop-opacity="1"/><stop offset="40%" stop-color="rgb(254, 224, 139)" stop-opacity="1"/><stop offset="50%" stop-color="rgb(255, 255, 191)" stop-opacity="1"/><stop offset="60%" stop-color="rgb(230, 245, 152)" stop-opacity="1"/><stop offset="70%" stop-color="rgb(171, 221, 164)" stop-opacity="1"/><stop offset="80%" stop-color="rgb(102, 194, 165)" stop-opacity="1"/><stop offset="90%" stop-color="rgb(50, 136, 189)" stop-opacity="1"/><stop offset="100%" stop-color="rgb(94, 79, 162)" stop-opacity="1"/></linearGradient></g><g class="patterns"/></defs><g class="bglayer"/><g class="layer-below"><g class="imagelayer"/><g class="shapelayer"/></g><g class="cartesianlayer"><g class="subplot xy"><g class="layer-subplot"><g class="shapelayer"/><g class="imagelayer"/></g><g class="minor-gridlayer"><g class="x"/><g class="y"/></g><g class="gridlayer"><g class="x"><path class="xgrid crisp" transform="translate(161.28,0)" d="M0,100v292" style="stroke: rgb(255, 255, 255); stroke-opacity: 1; stroke-width: 1px;"/><path class="xgrid crisp" transform="translate(222.48,0)" d="M0,100v292" style="stroke: rgb(255, 255, 255); stroke-opacity: 1; stroke-width: 1px;"/><path class="xgrid crisp" transform="translate(283.69,0)" d="M0,100v292" style="stroke: rgb(255, 255, 255); stroke-opacity: 1; stroke-width: 1px;"/><path class="xgrid crisp" transform="translate(344.89,0)" d="M0,100v292" style="stroke: rgb(255, 255, 255); stroke-opacity: 1; stroke-width: 1px;"/><path class="xgrid crisp" transform="translate(406.09,0)" d="M0,100v292" style="stroke: rgb(255, 255, 255); stroke-opacity: 1; stroke-width: 1px;"/><path class="xgrid crisp" transform="translate(467.29,0)" d="M0,100v292" style="stroke: rgb(255, 255, 255); stroke-opacity: 1; stroke-width: 1px;"/><path class="xgrid crisp" transform="translate(528.49,0)" d="M0,100v292" style="stroke: rgb(255, 255, 255); stroke-opacity: 1; stroke-width: 1px;"/><path class="xgrid crisp" transform="translate(589.69,0)" d="M0,100v292" style="stroke: rgb(255, 255, 255); stroke-opacity: 1; stroke-width: 1px;"/><path class="xgrid crisp" transform="translate(650.89,0)" d="M0,100v292" style="stroke: rgb(255, 255, 255); stroke-opacity: 1; stroke-width: 1px;"/><path class="xgrid crisp" transform="translate(712.09,0)" d="M0,100v292" style="stroke: rgb(255, 255, 255); stroke-opacity: 1; stroke-width: 1px;"/></g><g class="y"><path class="ygrid crisp" transform="translate(0,350.55)" d="M80,0h677" style="stroke: rgb(255, 255, 255); stroke-opacity: 1; stroke-width: 1px;"/><path class="ygrid crisp" transform="translate(0,309.38)" d="M80,0h677" style="stroke: rgb(255, 255, 255); stroke-opacity: 1; stroke-width: 1px;"/><path class="ygrid crisp" transform="translate(0,268.21000000000004)" d="M80,0h677" style="stroke: rgb(255, 255, 255); stroke-opacity: 1; stroke-width: 1px;"/><path class="ygrid crisp" transform="translate(0,227.05)" d="M80,0h677" style="stroke: rgb(255, 255, 255); stroke-opacity: 1; stroke-width: 1px;"/><path class="ygrid crisp" transform="translate(0,185.88)" d="M80,0h677" style="stroke: rgb(255, 255, 255); stroke-opacity: 1; stroke-width: 1px;"/><path class="ygrid crisp" transform="translate(0,144.71)" d="M80,0h677" style="stroke: rgb(255, 255, 255); stroke-opacity: 1; stroke-width: 1px;"/><path class="ygrid crisp" transform="translate(0,103.54)" d="M80,0h677" style="stroke: rgb(255, 255, 255); stroke-opacity: 1; stroke-width: 1px;"/></g></g><g class="zerolinelayer"/><g class="layer-between"><g class="shapelayer"/><g class="imagelayer"/></g><path class="xlines-below"/><path class="ylines-below"/><g class="overlines-below"/><g class="xaxislayer-below"/><g class="yaxislayer-below"/><g class="overaxes-below"/><g class="overplot"><g class="xy" transform="translate(80,100)" clip-path="url(#clip58c8cexyplot)"><g class="scatterlayer mlayer"><g class="trace scatter trace85412c" style="stroke-miterlimit: 2; opacity: 1;"><g class="fills"/><g class="errorbars"/><g class="lines"/><g class="points"><path class="point" transform="translate(81.28,229.97)" d="M42.43,0A42.43,42.43 0 1,1 0,-42.43A42.43,42.43 0 0,1 42.43,0Z" style="opacity: 0.7; stroke-width: 1px; fill: rgb(94, 79, 162); fill-opacity: 1; stroke: rgb(255, 255, 255); stroke-opacity: 1;"/><path class="point" transform="translate(142.48,166.88)" d="M25.69,0A25.69,25.69 0 1,1 0,-25.69A25.69,25.69 0 0,1 25.69,0Z" style="opacity: 0.7; stroke-width: 1px; fill: rgb(253, 189, 110); fill-opacity: 1; stroke: rgb(255, 255, 255); stroke-opacity: 1;"/><path class="point" transform="translate(203.69,209.57)" d="M20.84,0A20.84,20.84 0 1,1 0,-20.84A20.84,20.84 0 0,1 20.84,0Z" style="opacity: 0.7; stroke-width: 1px; fill: rgb(243, 108, 67); fill-opacity: 1; stroke: rgb(255, 255, 255); stroke-opacity: 1;"/><path class="point" transform="translate(264.89,95.99)" d="M20.47,0A20.47,20.47 0 1,1 0,-20.47A20.47,20.47 0 0,1 20.47,0Z" style="opacity: 0.7; stroke-width: 1px; fill: rgb(240, 104, 68); fill-opacity: 1; stroke: rgb(255, 255, 255); stroke-opacity: 1;"/><path class="point" transform="translate(326.09,105.43)" d="M14.78,0A14.78,14.78 0 1,1 0,-14.78A14.78,14.78 0 0,1 14.78,0Z" style="opacity: 0.7; stroke-width: 1px; fill: rgb(197, 44, 75); fill-opacity: 1; stroke: rgb(255, 255, 255); stroke-opacity: 1;"/><path class="point" transform="translate(387.29,136.21)" d="M11.83,0A11.83,11.83 0 1,1 0,-11.83A11.83,11.83 0 0,1 11.83,0Z" style="opacity: 0.7; stroke-width: 1px; fill: rgb(172, 16, 69); fill-opacity: 1; stroke: rgb(255, 255, 255); stroke-opacity: 1;"/><path class="point" transform="translate(448.49,179.12)" d="M11.47,0A11.47,11.47 0 1,1 0,-11.47A11.47,11.47 0 0,1 11.47,0Z" style="opacity: 0.7; stroke-width: 1px; fill: rgb(169, 13, 69); fill-opacity: 1; stroke: rgb(255, 255, 255); stroke-opacity: 1;"/><path class="point" transform="translate(509.69,26.46)" d="M10.61,0A10.61,10.61 0 1,1 0,-10.61A10.61,10.61 0 0,1 10.61,0Z" style="opacity: 0.7; stroke-width: 1px; fill: rgb(163, 6, 67); fill-opacity: 1; stroke: rgb(255, 255, 255); stroke-opacity: 1;"/><path class="point" transform="translate(570.89,181.55)" d="M10.11,0A10.11,10.11 0 1,1 0,-10.11A10.11,10.11 0 0,1 10.11,0Z" style="opacity: 0.7; stroke-width: 1px; fill: rgb(159, 3, 66); fill-opacity: 1; stroke: rgb(255, 255, 255); stroke-opacity: 1;"/><path class="point" transform="translate(632.09,205.52)" d="M9.89,0A9.89,9.89 0 1,1 0,-9.89A9.89,9.89 0 0,1 9.89,0Z" style="opacity: 0.7; stroke-width: 1px; fill: rgb(158, 1, 66); fill-opacity: 1; stroke: rgb(255, 255, 255); stroke-opacity: 1;"/></g><g class="text"/></g></g></g></g><g class="zerolinelayer-above"/><path class="xlines-above crisp" d="M79,392.5H757" style="fill: none; stroke-width: 1px; stroke: rgb(0, 0, 0); stroke-opacity: 1;"/><path class="ylines-above crisp" d="M79.5,100V392" style="fill: none; stroke-width: 1px; stroke: rgb(0, 0, 0); stroke-opacity: 1;"/><g class="overlines-above"/><g class="xaxislayer-above"><g class="xtick"><text text-anchor="end" x="0" y="409.8" transform="translate(161.28,0) rotate(-45,0,402.8)" style="font-family: Arial; font-size: 14px; fill: rgb(42, 63, 95); fill-opacity: 1; white-space: pre;">Data Analysts</text></g><g class="xtick"><text text-anchor="end" x="0" y="409.8" transform="translate(222.48,0) rotate(-45,0,402.8)" style="font-family: Arial; font-size: 14px; fill: rgb(42, 63, 95); fill-opacity: 1; white-space: pre;">Unclassified</text></g><g class="xtick"><text text-anchor="end" x="0" y="409.8" transform="translate(283.69,0) rotate(-45,0,402.8)" style="font-family: Arial; font-size: 14px; fill: rgb(42, 63, 95); fill-opacity: 1; white-space: pre;">Business Intelligence Analysts</text></g><g class="xtick"><text text-anchor="end" x="0" y="409.8" transform="translate(344.89,0) rotate(-45,0,402.8)" style="font-family: Arial; font-size: 14px; fill: rgb(42, 63, 95); fill-opacity: 1; white-space: pre;">Enterprise Architects</text></g><g class="xtick"><text text-anchor="end" x="0" y="409.8" transform="translate(406.09,0) rotate(-45,0,402.8)" style="font-family: Arial; font-size: 14px; fill: rgb(42, 63, 95); fill-opacity: 1; white-space: pre;">Oracle Cloud HCM Consultants</text></g><g class="xtick"><text text-anchor="end" x="0" y="409.8" transform="translate(467.29,0) rotate(-45,0,402.8)" style="font-family: Arial; font-size: 14px; fill: rgb(42, 63, 95); fill-opacity: 1; white-space: pre;">Data Modelers</text></g><g class="xtick"><text text-anchor="end" x="0" y="409.8" transform="translate(528.49,0) rotate(-45,0,402.8)" style="font-family: Arial; font-size: 14px; fill: rgb(42, 63, 95); fill-opacity: 1; white-space: pre;">Data Governance Analysts</text></g><g class="xtick"><text text-anchor="end" x="0" y="409.8" transform="translate(589.69,0) rotate(-45,0,402.8)" style="font-family: Arial; font-size: 14px; fill: rgb(42, 63, 95); fill-opacity: 1; white-space: pre;">Data Analytics Engineers</text></g><g class="xtick"><text text-anchor="end" x="0" y="409.8" transform="translate(650.89,0) rotate(-45,0,402.8)" style="font-family: Arial; font-size: 14px; fill: rgb(42, 63, 95); fill-opacity: 1; white-space: pre;">ERP Business Analysts</text></g><g class="xtick"><text text-anchor="end" x="0" y="409.8" transform="translate(712.09,0) rotate(-45,0,402.8)" style="font-family: Arial; font-size: 14px; fill: rgb(42, 63, 95); fill-opacity: 1; white-space: pre;">Data Quality Analysts</text></g></g><g class="yaxislayer-above"><g class="ytick"><text text-anchor="end" x="76.2" y="4.8999999999999995" transform="translate(0,391.72)" style="font-family: Arial; font-size: 14px; fill: rgb(42, 63, 95); fill-opacity: 1; white-space: pre;">60k</text></g><g class="ytick"><text text-anchor="end" x="76.2" y="4.8999999999999995" style="font-family: Arial; font-size: 14px; fill: rgb(42, 63, 95); fill-opacity: 1; white-space: pre;" transform="translate(0,350.55)">80k</text></g><g class="ytick"><text text-anchor="end" x="76.2" y="4.8999999999999995" style="font-family: Arial; font-size: 14px; fill: rgb(42, 63, 95); fill-opacity: 1; white-space: pre;" transform="translate(0,309.38)">100k</text></g><g class="ytick"><text text-anchor="end" x="76.2" y="4.8999999999999995" style="font-family: Arial; font-size: 14px; fill: rgb(42, 63, 95); fill-opacity: 1; white-space: pre;" transform="translate(0,268.21000000000004)">120k</text></g><g class="ytick"><text text-anchor="end" x="76.2" y="4.8999999999999995" style="font-family: Arial; font-size: 14px; fill: rgb(42, 63, 95); fill-opacity: 1; white-space: pre;" transform="translate(0,227.05)">140k</text></g><g class="ytick"><text text-anchor="end" x="76.2" y="4.8999999999999995" style="font-family: Arial; font-size: 14px; fill: rgb(42, 63, 95); fill-opacity: 1; white-space: pre;" transform="translate(0,185.88)">160k</text></g><g class="ytick"><text text-anchor="end" x="76.2" y="4.8999999999999995" style="font-family: Arial; font-size: 14px; fill: rgb(42, 63, 95); fill-opacity: 1; white-space: pre;" transform="translate(0,144.71)">180k</text></g><g class="ytick"><text text-anchor="end" x="76.2" y="4.8999999999999995" style="font-family: Arial; font-size: 14px; fill: rgb(42, 63, 95); fill-opacity: 1; white-space: pre;" transform="translate(0,103.54)">200k</text></g></g><g class="overaxes-above"/></g></g><g class="polarlayer"/><g class="smithlayer"/><g class="ternarylayer"/><g class="geolayer"/><g class="funnelarealayer"/><g class="pielayer"/><g class="iciclelayer"/><g class="treemaplayer"/><g class="sunburstlayer"/><g class="glimages"/><defs id="topdefs-58c8ce"><g class="clips"/></defs><g class="layer-above"><g class="imagelayer"/><g class="shapelayer"/></g><g class="infolayer"><g class="cbcoloraxis colorbar" transform="translate(80,100)"><rect class="cbbg" x="691" y="0" width="217.490234375" height="292" style="fill: rgb(0, 0, 0); fill-opacity: 0; stroke: rgb(68, 68, 68); stroke-opacity: 1; stroke-width: 0;"/><g class="cbfills" transform="translate(0,35)"><rect class="cbfill gradient_filled" style="fill: url('#g58c8ce-cbcoloraxis');" x="701" y="0" width="30" height="247"/></g><g class="cblines" transform="translate(0,35)"/><g class="cbaxis crisp" transform="translate(0,-100)"><g class="ycbcoloraxistick"><text text-anchor="start" x="734.3" y="4.8999999999999995" transform="translate(0,335.39)" style="font-family: Arial; font-size: 14px; fill: rgb(42, 63, 95); fill-opacity: 1; white-space: pre;">2000</text></g><g class="ycbcoloraxistick"><text text-anchor="start" x="734.3" y="4.8999999999999995" style="font-family: Arial; font-size: 14px; fill: rgb(42, 63, 95); fill-opacity: 1; white-space: pre;" transform="translate(0,274.58000000000004)">4000</text></g><g class="ycbcoloraxistick"><text text-anchor="start" x="734.3" y="4.8999999999999995" style="font-family: Arial; font-size: 14px; fill: rgb(42, 63, 95); fill-opacity: 1; white-space: pre;" transform="translate(0,213.78)">6000</text></g><g class="ycbcoloraxistick"><text text-anchor="start" x="734.3" y="4.8999999999999995" style="font-family: Arial; font-size: 14px; fill: rgb(42, 63, 95); fill-opacity: 1; white-space: pre;" transform="translate(0,152.97)">8000</text></g></g><g class="cbtitleunshift" transform="translate(-80,-100)"><g class="cbtitle" transform=""><text class="ycbcoloraxistitle" x="780.54" y="125.75" text-anchor="start" style="opacity: 1; font-family: Arial; font-size: 17px; fill: rgb(42, 63, 95); fill-opacity: 1; white-space: pre;">Number of Job Postings</text></g></g><rect class="cboutline" x="701" y="35" width="30" height="247" style="stroke: rgb(68, 68, 68); stroke-opacity: 1; fill: none; stroke-width: 0;"/></g><g class="g-gtitle"><text class="gtitle" x="50" y="50" text-anchor="start" dy="0em" style="opacity: 1; font-family: Arial; font-size: 25px; fill: rgb(42, 63, 95); fill-opacity: 1; white-space: pre;">Salary Analysis by Occupation Type (Bubble Chart)</text></g><g class="g-xtitle"><text class="xtitle" x="418.5" y="587.790625" text-anchor="middle" style="opacity: 1; font-family: Arial; font-size: 17px; fill: rgb(42, 63, 95); fill-opacity: 1; white-space: pre;">Occupation</text></g><g class="g-ytitle"><text class="ytitle" transform="rotate(-90,20.906445312499997,246)" x="20.906445312499997" y="246" text-anchor="middle" style="opacity: 1; font-family: Arial; font-size: 17px; fill: rgb(42, 63, 95); fill-opacity: 1; white-space: pre;">Median Salary</text></g></g></svg>